<?xml version="1.0"?>
<svg xmlns="http://www.w3.org/2000/svg" xmlns:xlink="http://www.w3.org/1999/xlink" width="512" height="512" viewBox="0 0 128 128"><defs><linearGradient id="a" x1="109.086" y1="109.09" x2="18.911" y2="18.916" gradientUnits="userSpaceOnUse"><stop offset="0" stop-color="#32d736"/><stop offset="1" stop-color="#fedb41"/></linearGradient></defs><path d="M89.627,64A25.624,25.624,0,1,1,64,38.377a1.75,1.75,0,0,1,0,3.5,22.115,22.115,0,1,0,21.112,15.5,1.75,1.75,0,1,1,3.34-1.048A25.583,25.583,0,0,1,89.627,64ZM75.378,45.031A22.291,22.291,0,0,1,78.605,47.4a1.75,1.75,0,0,0,2.315-2.626,25.8,25.8,0,0,0-3.735-2.736,1.75,1.75,0,1,0-1.807,3ZM62.843,48.457a1.75,1.75,0,1,0-2.475-2.475L45.982,60.369a1.75,1.75,0,1,0,2.475,2.474ZM47.629,70.787a1.75,1.75,0,0,0,2.474,0L70.786,50.1a1.75,1.75,0,0,0-2.475-2.475L47.629,68.312A1.749,1.749,0,0,0,47.629,70.787Zm3.912,5.678a1.752,1.752,0,0,0,2.475,0L76.465,54.016a1.75,1.75,0,0,0-2.475-2.475L51.541,73.99A1.749,1.749,0,0,0,51.541,76.465ZM80.377,57.219a1.751,1.751,0,0,0-2.475,0L57.22,77.9a1.75,1.75,0,0,0,2.474,2.475L80.377,59.694A1.751,1.751,0,0,0,80.377,57.219Zm-.828,7.944L65.163,79.549a1.75,1.75,0,1,0,2.475,2.474L82.023,67.637a1.749,1.749,0,0,0-2.474-2.474Zm46.971,8.39a1.751,1.751,0,0,1-.5,2.858,35.89,35.89,0,0,1-20.844,2.568,36.217,36.217,0,0,1,14.31,15.38,1.749,1.749,0,0,1-1.451,2.513q-1.245.087-2.491.087a36.238,36.238,0,0,1-17.964-4.791,36.217,36.217,0,0,1,8.178,19.336,1.75,1.75,0,0,1-1.74,1.933,1.734,1.734,0,0,1-.483-.068,36.22,36.22,0,0,1-17.6-11.39,36.216,36.216,0,0,1,1.063,20.94,1.752,1.752,0,0,1-1.1,1.222,1.774,1.774,0,0,1-.6.1,1.748,1.748,0,0,1-1.028-.334,36.221,36.221,0,0,1-12.648-16.725,36.214,36.214,0,0,1-6.163,20.042,1.751,1.751,0,0,1-2.9,0,36.214,36.214,0,0,1-6.163-20.042,36.215,36.215,0,0,1-12.65,16.73,1.749,1.749,0,0,1-2.726-.992,36.212,36.212,0,0,1,1.065-20.946A36.22,36.22,0,0,1,24.47,113.373a1.749,1.749,0,0,1-2.223-1.865,36.219,36.219,0,0,1,8.181-19.34,36.245,36.245,0,0,1-17.97,4.794q-1.244,0-2.49-.087a1.75,1.75,0,0,1-1.451-2.513A36.23,36.23,0,0,1,22.832,78.979,35.914,35.914,0,0,1,1.983,76.412a1.751,1.751,0,0,1-.5-2.858A36.162,36.162,0,0,1,7.6,68.8a1.75,1.75,0,0,1,1.838,2.979,32.7,32.7,0,0,0-3.448,2.449,32.7,32.7,0,0,0,18.966.724l6.713-1.769a33.459,33.459,0,0,1-1.189-6.755l-6.916.635a32.759,32.759,0,0,0-4.854.819,1.75,1.75,0,1,1-.842-3.4c.764-.189,1.538-.342,2.314-.481a36.223,36.223,0,0,1-18.7-9.556,1.751,1.751,0,0,1,.5-2.858A36.227,36.227,0,0,1,22.8,49.005,36.225,36.225,0,0,1,8.517,33.644a1.75,1.75,0,0,1,1.451-2.513,36.2,36.2,0,0,1,20.443,4.685A36.22,36.22,0,0,1,22.247,16.5a1.75,1.75,0,0,1,2.223-1.866,36.228,36.228,0,0,1,17.608,11.4A36.212,36.212,0,0,1,41.013,5.081a1.749,1.749,0,0,1,2.726-.992,36.206,36.206,0,0,1,12.649,16.73A36.226,36.226,0,0,1,62.552.771a1.751,1.751,0,0,1,2.9,0,36.217,36.217,0,0,1,6.163,20.048A36.216,36.216,0,0,1,84.265,4.094a1.749,1.749,0,0,1,2.726.992,36.219,36.219,0,0,1-1.063,20.941,36.213,36.213,0,0,1,17.6-11.39,1.75,1.75,0,0,1,2.223,1.865,36.219,36.219,0,0,1-8.161,19.314,36.2,36.2,0,0,1,20.438-4.682,1.749,1.749,0,0,1,1.451,2.512,36.217,36.217,0,0,1-14.275,15.36A36.216,36.216,0,0,1,126.017,51.6a1.751,1.751,0,0,1,.5,2.858A36.222,36.222,0,0,1,107.853,64,36.222,36.222,0,0,1,126.52,73.553ZM94.126,64A30.124,30.124,0,1,0,64,94.123,30.157,30.157,0,0,0,94.126,64Zm8.922-10.949-6.707,1.767a33.41,33.41,0,0,1,1.188,6.756l6.91-.634a32.7,32.7,0,0,0,17.573-7.166A32.718,32.718,0,0,0,103.048,53.051Zm-6.1-12.694-5.709,3.962a33.7,33.7,0,0,1,3.437,5.935l6.277-2.96a32.688,32.688,0,0,0,14.062-12.743A32.7,32.7,0,0,0,96.948,40.357ZM86.874,30.515l-4,5.669A33.851,33.851,0,0,1,88.115,40.6l4.9-4.936a32.707,32.707,0,0,0,8.855-16.785A32.7,32.7,0,0,0,86.874,30.515Zm-12.833-5.8L72.22,31.4a33.329,33.329,0,0,1,6.445,2.352l2.9-6.3a32.7,32.7,0,0,0,2.581-18.8A32.7,32.7,0,0,0,74.041,24.713ZM60,23.643l.574,6.907a34.1,34.1,0,0,1,6.861,0l.575-6.907a32.709,32.709,0,0,0-4-18.55A32.709,32.709,0,0,0,60,23.643Zm-13.563,3.8,2.905,6.3A33.339,33.339,0,0,1,55.786,31.4l-1.823-6.689A32.7,32.7,0,0,0,43.854,8.646,32.71,32.71,0,0,0,46.435,27.447Zm-20.3-8.571A32.7,32.7,0,0,0,34.992,35.66l4.9,4.941a33.844,33.844,0,0,1,5.245-4.417l-4.008-5.673A32.7,32.7,0,0,0,26.137,18.876Zm.91,28.416,6.282,2.962a33.66,33.66,0,0,1,3.437-5.935l-5.713-3.965a32.707,32.707,0,0,0-18.068-5.806A32.708,32.708,0,0,0,27.047,47.292ZM5.988,53.773A32.7,32.7,0,0,0,23.56,60.939l6.916.634a33.4,33.4,0,0,1,1.188-6.755L24.952,53.05A32.7,32.7,0,0,0,5.988,53.773Zm7,39.685a32.7,32.7,0,0,0,18.068-5.807l5.716-3.966a33.6,33.6,0,0,1-3.438-5.934l-6.284,2.963A32.708,32.708,0,0,0,12.985,93.458ZM41.128,97.5l4.011-5.677A33.886,33.886,0,0,1,39.893,87.4l-4.9,4.943a32.7,32.7,0,0,0-8.855,16.784A32.7,32.7,0,0,0,41.128,97.5Zm12.835,5.8,1.824-6.7a33.356,33.356,0,0,1-6.444-2.35l-2.908,6.3a32.709,32.709,0,0,0-2.581,18.8A32.7,32.7,0,0,0,53.963,103.3Zm14.045,1.058-.575-6.907a34.1,34.1,0,0,1-6.861,0L60,104.357A32.709,32.709,0,0,0,64,122.907,32.709,32.709,0,0,0,68.008,104.357Zm13.56-3.8-2.905-6.3A33.326,33.326,0,0,1,72.218,96.6l1.823,6.689a32.7,32.7,0,0,0,10.108,16.062A32.7,32.7,0,0,0,81.568,100.554Zm20.3,8.572A32.707,32.707,0,0,0,93.01,92.341l-4.9-4.939a33.893,33.893,0,0,1-5.245,4.416l4.007,5.673A32.7,32.7,0,0,0,101.865,109.126Zm-.912-28.415-6.279-2.96a33.6,33.6,0,0,1-3.438,5.934l5.712,3.963a32.694,32.694,0,0,0,18.067,5.807A32.7,32.7,0,0,0,100.953,80.711Zm21.059-6.48a32.709,32.709,0,0,0-17.573-7.165l-6.911-.634a33.411,33.411,0,0,1-1.189,6.756l6.709,1.767A32.71,32.71,0,0,0,122.012,74.231Z" fill="url(#a)"/></svg>
