<svg height="512" viewBox="0 0 128 128" width="512" xmlns="http://www.w3.org/2000/svg"><g><g><g fill="#fedb41"><path d="m58.978 32.521a31.883 31.883 0 0 1 10.044 0l.727-8.736a34.322 34.322 0 0 0 -5.749-22.038 34.322 34.322 0 0 0 -5.749 22.038z"/><path d="m58.978 32.521a31.883 31.883 0 0 1 10.044 0l.727-8.736a34.322 34.322 0 0 0 -5.749-22.038 34.322 34.322 0 0 0 -5.749 22.038z"/><path d="m48.515 36.137a31.98 31.98 0 0 1 9.439-3.437l-2.3-8.457a34.324 34.324 0 0 0 -12.945-18.743 34.32 34.32 0 0 0 2.135 22.675z"/><path d="m48.515 36.137a31.98 31.98 0 0 1 9.439-3.437l-2.3-8.457a34.324 34.324 0 0 0 -12.945-18.743 34.32 34.32 0 0 0 2.135 22.675z"/><path d="m39.92 43.113a31.957 31.957 0 0 1 7.7-6.456l-5.064-7.157a34.315 34.315 0 0 0 -18.57-13.187 34.323 34.323 0 0 0 9.762 20.577z"/><path d="m39.92 43.113a31.957 31.957 0 0 1 7.7-6.456l-5.064-7.157a34.315 34.315 0 0 0 -18.57-13.187 34.323 34.323 0 0 0 9.762 20.577z"/><path d="m34.23 52.608a31.953 31.953 0 0 1 5.022-8.7l-7.2-5a34.322 34.322 0 0 0 -21.96-6.04 34.323 34.323 0 0 0 16.211 16z"/><path d="m34.23 52.608a31.953 31.953 0 0 1 5.022-8.7l-7.2-5a34.322 34.322 0 0 0 -21.96-6.04 34.323 34.323 0 0 0 16.211 16z"/><path d="m32.13 63.477a31.963 31.963 0 0 1 1.744-9.892l-8.474-2.232a34.319 34.319 0 0 0 -22.7 1.835 34.321 34.321 0 0 0 20.7 9.488z"/><path d="m32.13 63.477a31.963 31.963 0 0 1 1.744-9.892l-8.474-2.232a34.319 34.319 0 0 0 -22.7 1.835 34.321 34.321 0 0 0 20.7 9.488z"/><path d="m33.874 74.409a31.963 31.963 0 0 1 -1.744-9.892l-8.729.8a34.316 34.316 0 0 0 -20.701 9.49 34.319 34.319 0 0 0 22.7 1.834z"/><path d="m33.874 74.409a31.963 31.963 0 0 1 -1.744-9.892l-8.729.8a34.316 34.316 0 0 0 -20.701 9.49 34.319 34.319 0 0 0 22.7 1.834z"/><path d="m39.252 84.085a31.953 31.953 0 0 1 -5.022-8.7l-7.93 3.739a34.323 34.323 0 0 0 -16.211 16 34.322 34.322 0 0 0 21.96-6.04z"/><path d="m39.252 84.085a31.953 31.953 0 0 1 -5.022-8.7l-7.93 3.739a34.323 34.323 0 0 0 -16.211 16 34.322 34.322 0 0 0 21.96-6.04z"/><path d="m47.615 91.337a31.9 31.9 0 0 1 -7.695-6.456l-6.172 6.225a34.323 34.323 0 0 0 -9.762 20.577 34.319 34.319 0 0 0 18.57-13.183z"/><path d="m47.615 91.337a31.9 31.9 0 0 1 -7.695-6.456l-6.172 6.225a34.323 34.323 0 0 0 -9.762 20.577 34.319 34.319 0 0 0 18.57-13.183z"/><path d="m57.954 95.293a31.98 31.98 0 0 1 -9.439-3.436l-3.671 7.961a34.32 34.32 0 0 0 -2.135 22.675 34.324 34.324 0 0 0 12.94-18.743z"/><path d="m57.954 95.293a31.98 31.98 0 0 1 -9.439-3.436l-3.671 7.961a34.32 34.32 0 0 0 -2.135 22.675 34.324 34.324 0 0 0 12.94-18.743z"/><path d="m69.022 95.473a31.883 31.883 0 0 1 -10.044 0l-.727 8.736a34.32 34.32 0 0 0 5.749 22.038 34.32 34.32 0 0 0 5.749-22.038z"/><path d="m69.022 95.473a31.883 31.883 0 0 1 -10.044 0l-.727 8.736a34.32 34.32 0 0 0 5.749 22.038 34.32 34.32 0 0 0 5.749-22.038z"/><path d="m79.485 91.857a31.98 31.98 0 0 1 -9.439 3.436l2.3 8.457a34.324 34.324 0 0 0 12.94 18.743 34.327 34.327 0 0 0 -2.135-22.675z"/><path d="m79.485 91.857a31.98 31.98 0 0 1 -9.439 3.436l2.3 8.457a34.324 34.324 0 0 0 12.94 18.743 34.327 34.327 0 0 0 -2.135-22.675z"/><path d="m88.08 84.881a31.9 31.9 0 0 1 -7.695 6.456l5.059 7.16a34.32 34.32 0 0 0 18.569 13.186 34.316 34.316 0 0 0 -9.761-20.577z"/><path d="m88.08 84.881a31.9 31.9 0 0 1 -7.695 6.456l5.059 7.16a34.32 34.32 0 0 0 18.569 13.186 34.316 34.316 0 0 0 -9.761-20.577z"/><path d="m93.77 75.386a31.953 31.953 0 0 1 -5.022 8.7l7.2 5a34.322 34.322 0 0 0 21.96 6.04 34.323 34.323 0 0 0 -16.211-16z"/><path d="m93.77 75.386a31.953 31.953 0 0 1 -5.022 8.7l7.2 5a34.322 34.322 0 0 0 21.96 6.04 34.323 34.323 0 0 0 -16.211-16z"/><path d="m95.87 64.517a31.963 31.963 0 0 1 -1.744 9.892l8.477 2.232a34.32 34.32 0 0 0 22.7-1.834 34.316 34.316 0 0 0 -20.7-9.489z"/><path d="m95.87 64.517a31.963 31.963 0 0 1 -1.744 9.892l8.477 2.232a34.32 34.32 0 0 0 22.7-1.834 34.316 34.316 0 0 0 -20.7-9.489z"/><path d="m94.126 53.585a31.963 31.963 0 0 1 1.744 9.892l8.729-.8a34.321 34.321 0 0 0 20.701-9.489 34.32 34.32 0 0 0 -22.7-1.835z"/><path d="m94.126 53.585a31.963 31.963 0 0 1 1.744 9.892l8.729-.8a34.321 34.321 0 0 0 20.701-9.489 34.32 34.32 0 0 0 -22.7-1.835z"/><path d="m88.748 43.909a31.953 31.953 0 0 1 5.022 8.7l7.93-3.739a34.323 34.323 0 0 0 16.211-16 34.322 34.322 0 0 0 -21.96 6.04z"/><path d="m88.748 43.909a31.953 31.953 0 0 1 5.022 8.7l7.93-3.739a34.323 34.323 0 0 0 16.211-16 34.322 34.322 0 0 0 -21.96 6.04z"/><path d="m80.385 36.657a31.957 31.957 0 0 1 7.695 6.456l6.172-6.225a34.316 34.316 0 0 0 9.761-20.577 34.316 34.316 0 0 0 -18.569 13.189z"/><path d="m80.385 36.657a31.957 31.957 0 0 1 7.695 6.456l6.172-6.225a34.316 34.316 0 0 0 9.761-20.577 34.316 34.316 0 0 0 -18.569 13.189z"/><path d="m70.046 32.7a31.98 31.98 0 0 1 9.439 3.436l3.671-7.961a34.327 34.327 0 0 0 2.135-22.675 34.324 34.324 0 0 0 -12.94 18.743z"/><path d="m70.046 32.7a31.98 31.98 0 0 1 9.439 3.436l3.671-7.961a34.327 34.327 0 0 0 2.135-22.675 34.324 34.324 0 0 0 -12.94 18.743z"/></g><circle cx="64" cy="63.997" fill="#c27b48" r="31.873"/><circle cx="64" cy="63.997" fill="#fedb41" r="23.874"/><g fill="#fea832"><path d="m48.454 62.84 14.386-14.386a1.75 1.75 0 1 0 -2.475-2.474l-14.386 14.386a1.75 1.75 0 1 0 2.475 2.474z"/><path d="m70.783 47.627a1.748 1.748 0 0 0 -2.474 0l-20.683 20.682a1.75 1.75 0 0 0 2.474 2.475l20.683-20.684a1.748 1.748 0 0 0 0-2.473z"/><path d="m76.462 51.538a1.751 1.751 0 0 0 -2.475 0l-22.449 22.449a1.75 1.75 0 1 0 2.475 2.475l22.449-22.449a1.751 1.751 0 0 0 0-2.475z"/><path d="m80.374 57.216a1.751 1.751 0 0 0 -2.475 0l-20.682 20.684a1.749 1.749 0 1 0 2.474 2.474l20.683-20.683a1.749 1.749 0 0 0 0-2.475z"/><path d="m82.02 65.16a1.748 1.748 0 0 0 -2.474 0l-14.386 14.386a1.75 1.75 0 1 0 2.475 2.474l14.385-14.386a1.748 1.748 0 0 0 0-2.474z"/></g></g><g><path d="m88.455 56.331a1.75 1.75 0 1 0 -3.34 1.048 22.125 22.125 0 1 1 -21.115-15.502 1.75 1.75 0 0 0 0-3.5 25.613 25.613 0 1 0 24.455 17.954z"/><path d="m75.378 45.031a22.291 22.291 0 0 1 3.227 2.369 1.75 1.75 0 0 0 2.315-2.626 25.8 25.8 0 0 0 -3.735-2.736 1.75 1.75 0 1 0 -1.807 3z"/><path d="m62.843 48.457a1.75 1.75 0 1 0 -2.475-2.475l-14.386 14.387a1.75 1.75 0 1 0 2.475 2.474z"/><path d="m47.629 70.787a1.75 1.75 0 0 0 2.474 0l20.683-20.687a1.75 1.75 0 0 0 -2.475-2.475l-20.682 20.687a1.749 1.749 0 0 0 0 2.475z"/><path d="m51.541 76.465a1.752 1.752 0 0 0 2.475 0l22.449-22.449a1.75 1.75 0 0 0 -2.475-2.475l-22.449 22.449a1.749 1.749 0 0 0 0 2.475z"/><path d="m80.377 57.219a1.751 1.751 0 0 0 -2.475 0l-20.682 20.681a1.75 1.75 0 0 0 2.474 2.475l20.683-20.681a1.751 1.751 0 0 0 0-2.475z"/><path d="m79.549 65.163-14.386 14.386a1.75 1.75 0 1 0 2.475 2.474l14.385-14.386a1.749 1.749 0 0 0 -2.474-2.474z"/><path d="m107.853 64a36.222 36.222 0 0 0 18.667-9.55 1.751 1.751 0 0 0 -.5-2.858 36.216 36.216 0 0 0 -20.809-2.589 36.217 36.217 0 0 0 14.275-15.36 1.749 1.749 0 0 0 -1.451-2.512 36.2 36.2 0 0 0 -20.438 4.682 36.219 36.219 0 0 0 8.158-19.313 1.75 1.75 0 0 0 -2.223-1.865 36.213 36.213 0 0 0 -17.6 11.39 36.219 36.219 0 0 0 1.059-20.939 1.749 1.749 0 0 0 -2.726-.992 36.216 36.216 0 0 0 -12.648 16.725 36.217 36.217 0 0 0 -6.163-20.048 1.751 1.751 0 0 0 -2.9 0 36.226 36.226 0 0 0 -6.164 20.048 36.206 36.206 0 0 0 -12.651-16.73 1.749 1.749 0 0 0 -2.726.992 36.212 36.212 0 0 0 1.065 20.946 36.228 36.228 0 0 0 -17.608-11.4 1.75 1.75 0 0 0 -2.223 1.873 36.22 36.22 0 0 0 8.164 19.318 36.2 36.2 0 0 0 -20.443-4.687 1.75 1.75 0 0 0 -1.451 2.513 36.225 36.225 0 0 0 14.283 15.361 36.227 36.227 0 0 0 -20.817 2.589 1.751 1.751 0 0 0 -.5 2.858 36.223 36.223 0 0 0 18.7 9.556c-.776.139-1.55.292-2.314.481a1.75 1.75 0 1 0 .842 3.4 32.759 32.759 0 0 1 4.854-.819l6.916-.635a33.459 33.459 0 0 0 1.189 6.755l-6.713 1.769a32.7 32.7 0 0 1 -18.966-.724 32.7 32.7 0 0 1 3.448-2.449 1.75 1.75 0 0 0 -1.839-2.986 36.162 36.162 0 0 0 -6.117 4.75 1.751 1.751 0 0 0 .5 2.858 35.914 35.914 0 0 0 20.849 2.567 36.23 36.23 0 0 0 -14.315 15.387 1.75 1.75 0 0 0 1.451 2.513q1.245.087 2.49.087a36.245 36.245 0 0 0 17.97-4.794 36.219 36.219 0 0 0 -8.181 19.34 1.75 1.75 0 0 0 2.223 1.865 36.22 36.22 0 0 0 17.608-11.394 36.212 36.212 0 0 0 -1.065 20.946 1.748 1.748 0 0 0 2.726.992 36.215 36.215 0 0 0 12.65-16.73 36.214 36.214 0 0 0 6.163 20.042 1.751 1.751 0 0 0 2.9 0 36.214 36.214 0 0 0 6.163-20.042 36.221 36.221 0 0 0 12.648 16.725 1.748 1.748 0 0 0 1.028.334 1.774 1.774 0 0 0 .6-.1 1.752 1.752 0 0 0 1.1-1.222 36.216 36.216 0 0 0 -1.063-20.94 36.22 36.22 0 0 0 17.6 11.39 1.734 1.734 0 0 0 .483.068 1.75 1.75 0 0 0 1.74-1.933 36.217 36.217 0 0 0 -8.178-19.336 36.238 36.238 0 0 0 17.964 4.791q1.245 0 2.491-.087a1.749 1.749 0 0 0 1.451-2.513 36.217 36.217 0 0 0 -14.31-15.38 35.89 35.89 0 0 0 20.844-2.568 1.751 1.751 0 0 0 .5-2.858 36.222 36.222 0 0 0 -18.66-9.558zm-43.853 30.123a30.123 30.123 0 1 1 30.126-30.123 30.158 30.158 0 0 1 -30.126 30.123zm58.009-40.349a32.7 32.7 0 0 1 -17.573 7.166l-6.91.634a33.41 33.41 0 0 0 -1.188-6.756l6.707-1.767a32.718 32.718 0 0 1 18.967.723zm-7-19.223a32.688 32.688 0 0 1 -14.062 12.743l-6.277 2.96a33.7 33.7 0 0 0 -3.437-5.935l5.709-3.962a32.7 32.7 0 0 1 18.073-5.806zm-13.144-15.671a32.707 32.707 0 0 1 -8.855 16.785l-4.9 4.936a33.851 33.851 0 0 0 -5.246-4.417l4-5.669a32.7 32.7 0 0 1 15.001-11.635zm-17.716-10.229a32.7 32.7 0 0 1 -2.581 18.8l-2.9 6.3a33.329 33.329 0 0 0 -6.448-2.351l1.821-6.683a32.7 32.7 0 0 1 10.108-16.066zm-20.149-3.558a32.709 32.709 0 0 1 4 18.55l-.575 6.907a34.1 34.1 0 0 0 -6.861 0l-.564-6.907a32.709 32.709 0 0 1 4-18.55zm-20.146 3.553a32.7 32.7 0 0 1 10.109 16.061l1.823 6.693a33.339 33.339 0 0 0 -6.446 2.352l-2.905-6.3a32.71 32.71 0 0 1 -2.581-18.806zm-2.726 21.865 4.008 5.673a33.844 33.844 0 0 0 -5.245 4.416l-4.9-4.941a32.7 32.7 0 0 1 -8.855-16.784 32.7 32.7 0 0 1 14.992 11.636zm-28.143 4.037a32.707 32.707 0 0 1 18.068 5.806l5.713 3.965a33.66 33.66 0 0 0 -3.437 5.935l-6.282-2.962a32.708 32.708 0 0 1 -14.062-12.744zm11.967 18.5 6.712 1.768a33.4 33.4 0 0 0 -1.188 6.755l-6.916-.634a32.7 32.7 0 0 1 -17.572-7.164 32.7 32.7 0 0 1 18.964-.723zm2.095 27.664 6.284-2.963a33.6 33.6 0 0 0 3.438 5.934l-5.716 3.966a32.7 32.7 0 0 1 -18.068 5.807 32.708 32.708 0 0 1 14.062-12.742zm-.91 28.416a32.7 32.7 0 0 1 8.855-16.784l4.9-4.943a33.886 33.886 0 0 0 5.246 4.415l-4.01 5.684a32.7 32.7 0 0 1 -14.991 11.63zm17.717 10.23a32.709 32.709 0 0 1 2.581-18.8l2.908-6.3a33.356 33.356 0 0 0 6.444 2.35l-1.824 6.7a32.7 32.7 0 0 1 -10.109 16.052zm20.146 3.549a32.709 32.709 0 0 1 -4-18.55l.574-6.907a34.1 34.1 0 0 0 6.861 0l.575 6.907a32.709 32.709 0 0 1 -4.01 18.55zm20.146-3.552a32.7 32.7 0 0 1 -10.108-16.062l-1.82-6.693a33.326 33.326 0 0 0 6.445-2.351l2.905 6.3a32.7 32.7 0 0 1 2.581 18.806zm2.725-21.864-4.007-5.673a33.893 33.893 0 0 0 5.248-4.418l4.9 4.939a32.707 32.707 0 0 1 8.855 16.785 32.7 32.7 0 0 1 -14.993-11.633zm28.141-4.036a32.694 32.694 0 0 1 -18.067-5.807l-5.712-3.963a33.6 33.6 0 0 0 3.438-5.934l6.279 2.96a32.7 32.7 0 0 1 14.065 12.744zm-11.967-18.5-6.709-1.767a33.411 33.411 0 0 0 1.189-6.756l6.911.634a32.709 32.709 0 0 1 17.573 7.165 32.71 32.71 0 0 1 -18.961.724z"/></g></g></svg>