<svg viewBox="0 0 100 100" xmlns="http://www.w3.org/2000/svg">
  <g transform="translate(50 50)">
    <g fill="#f5b89a">
      <ellipse cx="0" cy="-30" rx="8" ry="18" />
      <ellipse cx="0" cy="-30" rx="8" ry="18" transform="rotate(30)" />
      <ellipse cx="0" cy="-30" rx="8" ry="18" transform="rotate(60)" />
      <ellipse cx="0" cy="-30" rx="8" ry="18" transform="rotate(90)" />
      <ellipse cx="0" cy="-30" rx="8" ry="18" transform="rotate(120)" />
      <ellipse cx="0" cy="-30" rx="8" ry="18" transform="rotate(150)" />
      <ellipse cx="0" cy="-30" rx="8" ry="18" transform="rotate(180)" />
      <ellipse cx="0" cy="-30" rx="8" ry="18" transform="rotate(210)" />
      <ellipse cx="0" cy="-30" rx="8" ry="18" transform="rotate(240)" />
      <ellipse cx="0" cy="-30" rx="8" ry="18" transform="rotate(270)" />
      <ellipse cx="0" cy="-30" rx="8" ry="18" transform="rotate(300)" />
      <ellipse cx="0" cy="-30" rx="8" ry="18" transform="rotate(330)" />
    </g>
    <circle cx="0" cy="0" r="14" fill="#09646A" />
    <circle cx="-4" cy="-4" r="1.5" fill="#84BAB8" />
    <circle cx="4" cy="-3" r="1.5" fill="#84BAB8" />
    <circle cx="0" cy="3" r="1.5" fill="#84BAB8" />
    <circle cx="-5" cy="4" r="1.5" fill="#84BAB8" />
    <circle cx="5" cy="5" r="1.5" fill="#84BAB8" />
  </g>
</svg>
