<svg viewBox="0 0 100 100" xmlns="http://www.w3.org/2000/svg">
  <g transform="translate(50 50)" stroke="#09646A" stroke-width="2.4" stroke-linecap="round" fill="none">
    <line x1="0" y1="-32" x2="0" y2="-18" />
    <line x1="0" y1="-32" x2="0" y2="-18" transform="rotate(45)" />
    <line x1="0" y1="-32" x2="0" y2="-18" transform="rotate(90)" />
    <line x1="0" y1="-32" x2="0" y2="-18" transform="rotate(135)" />
    <line x1="0" y1="-32" x2="0" y2="-18" transform="rotate(180)" />
    <line x1="0" y1="-32" x2="0" y2="-18" transform="rotate(225)" />
    <line x1="0" y1="-32" x2="0" y2="-18" transform="rotate(270)" />
    <line x1="0" y1="-32" x2="0" y2="-18" transform="rotate(315)" />
    <line x1="0" y1="-26" x2="0" y2="-19" transform="rotate(22.5)" />
    <line x1="0" y1="-26" x2="0" y2="-19" transform="rotate(67.5)" />
    <line x1="0" y1="-26" x2="0" y2="-19" transform="rotate(112.5)" />
    <line x1="0" y1="-26" x2="0" y2="-19" transform="rotate(157.5)" />
    <line x1="0" y1="-26" x2="0" y2="-19" transform="rotate(202.5)" />
    <line x1="0" y1="-26" x2="0" y2="-19" transform="rotate(247.5)" />
    <line x1="0" y1="-26" x2="0" y2="-19" transform="rotate(292.5)" />
    <line x1="0" y1="-26" x2="0" y2="-19" transform="rotate(337.5)" />
  </g>
  <circle cx="50" cy="50" r="11" fill="#f5b89a" />
  <circle cx="50" cy="50" r="4" fill="#09646A" />
</svg>
